<?xml version="1.0" encoding="UTF-8"?>
<!DOCTYPE svg PUBLIC "-//W3C//DTD SVG 1.1//EN" "http://www.w3.org/Graphics/SVG/1.1/DTD/svg11.dtd">
<svg xmlns="http://www.w3.org/2000/svg" version="1.1" width="131px" height="51px" style="shape-rendering:geometricPrecision; text-rendering:geometricPrecision; image-rendering:optimizeQuality; fill-rule:evenodd; clip-rule:evenodd" xmlns:xlink="http://www.w3.org/1999/xlink">
<g><path style="opacity:0.9" fill="#020202" d="M 40.5,-0.5 C 52.1667,-0.5 63.8333,-0.5 75.5,-0.5C 80.8986,2.64702 82.732,7.31368 81,13.5C 80.1667,15 79,16.1667 77.5,17C 84.4936,19.9933 86.9936,25.16 85,32.5C 83.9509,34.6175 82.4509,36.2842 80.5,37.5C 80.5,36.8333 80.5,36.1667 80.5,35.5C 80.6277,33.8708 79.6277,32.5375 77.5,31.5C 75.2677,32.8689 72.9344,33.8689 70.5,34.5C 69.0779,34.7496 68.0779,35.583 67.5,37C 66.2068,37.49 64.8734,37.6567 63.5,37.5C 63.5,36.5 63.5,35.5 63.5,34.5C 65.332,33.8595 65.6653,32.8595 64.5,31.5C 63.8076,32.0253 63.3076,32.6919 63,33.5C 62.6097,30.8958 61.7763,28.5625 60.5,26.5C 58.8356,25.0512 58.0023,23.0512 58,20.5C 57.3076,21.0253 56.8076,21.6919 56.5,22.5C 57.0505,24.6568 57.7171,26.6568 58.5,28.5C 58.5,32.8333 58.5,37.1667 58.5,41.5C 56.5659,40.8897 54.8993,39.8897 53.5,38.5C 45.6239,30.8197 45.6239,22.9864 53.5,15C 55.7481,13.0863 58.2481,11.5863 61,10.5C 61.9454,10.9054 62.6121,11.572 63,12.5C 63.4935,10.8659 63.6602,9.19919 63.5,7.5C 52.6692,9.56922 44.6692,16.2359 39.5,27.5C 37.9069,17.9258 38.2402,8.59248 40.5,-0.5 Z"/></g>
<g><path style="opacity:1" fill="#4e4e4e" d="M 60.5,26.5 C 60.8693,28.9935 60.2027,29.6602 58.5,28.5C 57.7171,26.6568 57.0505,24.6568 56.5,22.5C 56.8076,21.6919 57.3076,21.0253 58,20.5C 58.0023,23.0512 58.8356,25.0512 60.5,26.5 Z"/></g>
<g><path style="opacity:1" fill="#8b8b8b" d="M 53.5,38.5 C 52.0634,33.1286 52.2301,27.7952 54,22.5C 54.5,24 55,25.5 55.5,27C 54.9279,30.985 54.2612,34.8183 53.5,38.5 Z"/></g>
<g><path style="opacity:1" fill="#cfcfcf" d="M 77.5,31.5 C 79.6277,32.5375 80.6277,33.8708 80.5,35.5C 78.7376,34.7377 77.7376,33.4044 77.5,31.5 Z"/></g>
<g><path style="opacity:1" fill="#3d3d3d" d="M 77.5,31.5 C 77.7376,33.4044 78.7376,34.7377 80.5,35.5C 80.5,36.1667 80.5,36.8333 80.5,37.5C 80.1583,38.3382 79.4916,38.6716 78.5,38.5C 75.8522,37.1761 73.1855,35.8428 70.5,34.5C 72.9344,33.8689 75.2677,32.8689 77.5,31.5 Z"/></g>
<g><path style="opacity:1" fill="#888888" d="M 60.5,26.5 C 61.7763,28.5625 62.6097,30.8958 63,33.5C 63.3076,32.6919 63.8076,32.0253 64.5,31.5C 65.6653,32.8595 65.332,33.8595 63.5,34.5C 62.0689,34.1193 61.2355,33.1193 61,31.5C 60.6667,31.8333 60.3333,32.1667 60,32.5C 60.095,35.6437 59.9283,38.6437 59.5,41.5C 59.1667,41.5 58.8333,41.5 58.5,41.5C 58.5,37.1667 58.5,32.8333 58.5,28.5C 60.2027,29.6602 60.8693,28.9935 60.5,26.5 Z"/></g>
<g><path style="opacity:1" fill="#c5c5c5" d="M 63.5,34.5 C 63.5,35.5 63.5,36.5 63.5,37.5C 62.1667,38.8333 60.8333,40.1667 59.5,41.5C 59.9283,38.6437 60.095,35.6437 60,32.5C 60.3333,32.1667 60.6667,31.8333 61,31.5C 61.2355,33.1193 62.0689,34.1193 63.5,34.5 Z"/></g>
<g><path style="opacity:1" fill="#888888" d="M 70.5,34.5 C 73.1855,35.8428 75.8522,37.1761 78.5,38.5C 78.5,39.1667 78.1667,39.5 77.5,39.5C 73.1667,39.5 68.8333,39.5 64.5,39.5C 66.631,38.6862 68.9644,38.1862 71.5,38C 71.8333,37.6667 72.1667,37.3333 72.5,37C 71.244,36.5831 70.5774,35.7498 70.5,34.5 Z"/></g>
<g><path style="opacity:1" fill="#3b3b3b" d="M 70.5,34.5 C 70.5774,35.7498 71.244,36.5831 72.5,37C 72.1667,37.3333 71.8333,37.6667 71.5,38C 68.9644,38.1862 66.631,38.6862 64.5,39.5C 63.8902,40.391 63.5569,41.391 63.5,42.5C 61.901,42.7678 60.5676,42.4345 59.5,41.5C 60.8333,40.1667 62.1667,38.8333 63.5,37.5C 64.8734,37.6567 66.2068,37.49 67.5,37C 68.0779,35.583 69.0779,34.7496 70.5,34.5 Z"/></g>
<g><path style="opacity:0.306" fill="#0d0d0d" d="M 64.5,39.5 C 68.8333,39.5 73.1667,39.5 77.5,39.5C 73.8848,41.6736 69.8848,43.0069 65.5,43.5C 64.8165,43.1373 64.1499,42.8039 63.5,42.5C 63.5569,41.391 63.8902,40.391 64.5,39.5 Z"/></g>
<g><path style="opacity:0.441" fill="#000000" d="M 83.5,50.5 C 81.5,50.5 79.5,50.5 77.5,50.5C 76.8333,49.1667 76.1667,49.1667 75.5,50.5C 73.5,50.5 71.5,50.5 69.5,50.5C 69.1667,49.1667 68.8333,49.1667 68.5,50.5C 67.8333,50.5 67.1667,50.5 66.5,50.5C 65.8333,49.1667 65.1667,49.1667 64.5,50.5C 55.8333,50.5 47.1667,50.5 38.5,50.5C 38.3379,48.4727 38.5045,46.4727 39,44.5C 41.7191,45.4438 44.5525,45.7771 47.5,45.5C 47.5,46.5 47.5,47.5 47.5,48.5C 48.5,48.5 49.5,48.5 50.5,48.5C 50.3433,47.1266 50.51,45.7932 51,44.5C 55.4061,45.4643 60.0728,45.4643 65,44.5C 66,45.1667 67,45.8333 68,46.5C 70.1841,47.1081 72.1841,46.4414 74,44.5C 74.3333,45.1667 74.6667,45.8333 75,46.5C 77.4698,44.2691 79.8031,44.2691 82,46.5C 83,45.8333 84,45.1667 85,44.5C 84.8475,46.5185 84.3475,48.5185 83.5,50.5 Z"/></g>
</svg>
